<svg fill="none" height="32" viewBox="0 0 180 32" width="165" xmlns="http://www.w3.org/2000/svg">
<path class="text" d="M77.561 28.0136L79.9093 24.6103C81.1074 25.4004 82.3896 26.0548 83.7323 26.5615C84.799 26.9431 85.9233 27.1388 87.0562 27.1401C88.1964 27.1968 89.3272 26.9082 90.3007 26.312C90.6791 26.0962 90.9938 25.7842 91.2129 25.4077C91.432 25.0312 91.5478 24.6035 91.5485 24.1679C91.5605 23.8587 91.5001 23.551 91.3721 23.2694C91.2441 22.9877 91.052 22.7399 90.8112 22.5457C90.115 22.0625 89.3141 21.7515 88.4742 21.6381L84.5264 20.9688C82.7528 20.7452 81.0821 20.0123 79.7164 18.8588C79.1755 18.3437 78.7509 17.7189 78.4711 17.0263C78.1913 16.3336 78.0628 15.5892 78.0942 14.8429C78.0662 13.8826 78.2665 12.9294 78.6787 12.0616C79.0908 11.1938 79.7031 10.4364 80.4652 9.85139C82.2657 8.52214 84.4689 7.85319 86.7045 7.95691C88.2143 7.95217 89.7166 8.17006 91.1628 8.60355C92.6811 9.06904 94.125 9.74896 95.451 10.6228L93.0914 13.9127C92.0363 13.2191 90.8912 12.6733 89.6881 12.2904C88.6125 11.9526 87.4917 11.7804 86.3642 11.7799C85.3896 11.7301 84.4223 11.9709 83.5849 12.4719C83.2567 12.6732 82.9874 12.9575 82.8042 13.2961C82.6209 13.6347 82.5302 14.0156 82.5412 14.4005C82.521 14.7029 82.5733 15.0058 82.6936 15.284C82.814 15.5622 82.999 15.8076 83.2332 16C83.9803 16.4612 84.8217 16.7482 85.6949 16.8394L89.5973 17.5541C91.4234 17.786 93.1443 18.5382 94.5548 19.7209C95.0908 20.244 95.5111 20.8737 95.7886 21.5693C96.0661 22.265 96.1945 23.0111 96.1657 23.7595C96.1709 24.7496 95.9374 25.7263 95.485 26.6069C95.0116 27.489 94.3585 28.2619 93.5678 28.8758C92.7106 29.5605 91.7335 30.0798 90.6864 30.4073C89.5335 30.7861 88.3264 30.9739 87.1129 30.9631C85.3031 30.9786 83.5013 30.7185 81.7698 30.1917C80.2406 29.7412 78.8119 29.0018 77.561 28.0136ZM109.79 26.5956C110.822 26.6048 111.843 26.392 112.785 25.9717C113.712 25.5703 114.53 24.9516 115.167 24.1679L118.185 27.1854C117.119 28.3928 115.803 29.353 114.328 29.9989C112.808 30.6938 111.155 31.0499 109.484 31.0425C108.005 31.0461 106.541 30.7539 105.177 30.1831C103.814 29.6122 102.578 28.7743 101.543 27.7187C100.52 26.6555 99.715 25.4032 99.1719 24.0318C98.5862 22.591 98.2894 21.0492 98.2984 19.494C98.2855 17.9385 98.5824 16.3959 99.1719 14.9563C99.715 13.5983 100.521 12.3608 101.543 11.3148C102.568 10.2841 103.781 9.46001 105.116 8.88715C106.511 8.29318 108.013 7.99198 109.529 8.00227C111.215 7.99684 112.885 8.32853 114.441 8.97786C115.948 9.60084 117.302 10.5411 118.412 11.7345L115.304 14.979C114.586 14.1584 113.71 13.4909 112.728 13.0164C111.784 12.5755 110.753 12.3508 109.711 12.3585C108.849 12.3474 107.996 12.5267 107.211 12.8836C106.427 13.2405 105.731 13.7662 105.173 14.4231C103.973 15.8313 103.314 17.621 103.314 19.4713C103.314 21.3216 103.973 23.1114 105.173 24.5196C105.746 25.1793 106.456 25.7066 107.253 26.0651C108.051 26.4235 108.916 26.6045 109.79 26.5956ZM139.172 27.73C137.933 28.7801 136.531 29.6194 135.02 30.2144C133.524 30.7626 131.939 31.0318 130.346 31.0085C128.819 31.0177 127.306 30.7166 125.899 30.1236C124.55 29.5572 123.328 28.7281 122.303 27.6846C120.191 25.4728 119.016 22.5297 119.024 19.4713C119.012 17.9212 119.289 16.3823 119.841 14.9336C120.352 13.5832 121.123 12.3461 122.11 11.2921C123.071 10.2665 124.228 9.44469 125.513 8.8758C126.869 8.27088 128.34 7.96517 129.824 7.97955C131.266 7.96745 132.694 8.26537 134.01 8.85309C135.275 9.40202 136.411 10.2097 137.345 11.2241C138.305 12.2773 139.053 13.5061 139.546 14.8429C140.089 16.3132 140.358 17.8703 140.34 19.4373V20.6852H123.948C124.158 22.359 124.963 23.9013 126.217 25.0301C127.406 26.1606 128.989 26.7832 130.63 26.7657C131.639 26.7666 132.639 26.578 133.579 26.2098C134.459 25.8735 135.256 25.3511 135.916 24.6784L139.172 27.73ZM129.813 12.0522C129.114 12.0392 128.42 12.166 127.772 12.4251C127.123 12.6842 126.533 13.0704 126.035 13.561C124.956 14.66 124.257 16.075 124.039 17.5996H135.587C135.35 16.0893 134.644 14.6921 133.568 13.6064C133.076 13.1129 132.491 12.7231 131.846 12.46C131.201 12.197 130.509 12.066 129.813 12.0749V12.0522ZM143.279 30.5661V8.33123H148.293V11.9728C149.043 10.7411 150.087 9.71571 151.333 8.98921C152.559 8.3025 153.944 7.95036 155.349 7.9682C156.378 7.93588 157.402 8.12136 158.354 8.51236C159.306 8.90336 160.164 9.49105 160.874 10.2371C162.315 11.7679 163.09 13.8077 163.029 15.9092V30.5547H158.015V17.3613C158.082 15.9532 157.607 14.5729 156.688 13.5042C156.24 13.0135 155.69 12.627 155.076 12.3722C154.463 12.1174 153.8 12.0004 153.137 12.0295C152.181 12.0203 151.239 12.2586 150.403 12.7215C149.559 13.2115 148.838 13.8865 148.293 14.6954V30.5774L143.279 30.5661ZM168.849 24.7124V12.3472H164.368V8.35394H168.849V4.88258L173.874 1.16162V8.35394H179.036V12.3472H173.874V23.6234C173.831 24.0383 173.87 24.4578 173.991 24.8572C174.112 25.2565 174.311 25.6277 174.577 25.949C175.259 26.4739 176.114 26.7211 176.971 26.6409C177.443 26.6459 177.913 26.6079 178.378 26.5275C178.927 26.4232 179.469 26.283 180 26.1078V30.3278C179.296 30.5443 178.575 30.6999 177.845 30.793C177.13 30.8884 176.41 30.9376 175.689 30.9404C173.86 31.0678 172.048 30.5098 170.607 29.375C169.996 28.7743 169.523 28.0485 169.219 27.2476C168.916 26.4467 168.789 25.5896 168.849 24.7351V24.7124ZM72.7283 10.0783C70.8307 8.57124 68.4426 7.81959 66.0239 7.9682C64.4945 7.97162 62.9711 8.1583 61.4861 8.52413C60.5305 8.76378 59.5909 9.06307 58.6728 9.4203V13.7992C59.7517 13.294 60.8711 12.8804 62.0193 12.5627C62.9888 12.2998 63.9872 12.1588 64.9915 12.143C66.3612 12.0459 67.7195 12.449 68.8146 13.2774C69.2565 13.7005 69.6003 14.2154 69.8218 14.7857C70.0433 15.3561 70.137 15.968 70.0965 16.5786V18.6432C69.1437 18.1954 68.1478 17.8457 67.1243 17.5996C66.1333 17.3807 65.1215 17.2703 64.1067 17.2705C61.9002 17.1481 59.7172 17.7759 57.9127 19.0516C57.1707 19.6785 56.5809 20.4659 56.1878 21.3542C55.7947 22.2425 55.6087 23.2085 55.6438 24.1792C55.6211 25.1021 55.8073 26.0181 56.1884 26.8588C56.5695 27.6996 57.1357 28.4434 57.8446 29.0346C59.4387 30.3397 61.4586 31.0103 63.5168 30.9178C64.713 30.931 65.9013 30.7232 67.0222 30.3051C68.1693 29.8308 69.2221 29.1546 70.1305 28.3086V30.5774H75.0993V16.0794C75.1691 14.9697 74.9927 13.8584 74.5828 12.8248C74.173 11.7913 73.5397 10.8611 72.7283 10.1009V10.0783ZM70.1532 25.5973C69.4424 26.2043 68.6223 26.6701 67.7369 26.9699C66.8258 27.2709 65.8716 27.4204 64.9121 27.4123C63.7499 27.4726 62.5994 27.1541 61.6336 26.5048C61.2406 26.2381 60.9205 25.8773 60.7026 25.4553C60.4846 25.0332 60.3757 24.5634 60.3858 24.0885C60.3741 23.5714 60.4804 23.0585 60.6966 22.5887C60.9128 22.1189 61.2333 21.7046 61.6336 21.3772C62.6382 20.7138 63.8377 20.41 65.0369 20.5151C65.9462 20.5089 66.854 20.5887 67.7482 20.7532C68.5926 20.9264 69.412 21.2046 70.1872 21.5814L70.1532 25.5973Z" fill="#fff"></path>
<path class="circle1" d="M2.97221 31.0411C4.61371 31.0411 5.94442 29.7104 5.94442 28.0689C5.94442 26.4274 4.61371 25.0967 2.97221 25.0967C1.3307 25.0967 0 26.4274 0 28.0689C0 29.7104 1.3307 31.0411 2.97221 31.0411Z" fill="#fff"></path>
<path class="circle5" d="M18.4632 31.0069C20.1047 31.0069 21.4354 29.6762 21.4354 28.0347C21.4354 26.3932 20.1047 25.0625 18.4632 25.0625C16.8217 25.0625 15.491 26.3932 15.491 28.0347C15.491 29.6762 16.8217 31.0069 18.4632 31.0069Z" fill="#fff"></path>
<path class="circle6" d="M26.1112 24.5584C28.4043 24.5584 30.2633 22.6995 30.2633 20.4064C30.2633 18.1133 28.4043 16.2544 26.1112 16.2544C23.8181 16.2544 21.9592 18.1133 21.9592 20.4064C21.9592 22.6995 23.8181 24.5584 26.1112 24.5584Z" fill="#fff"></path>
<path class="circle2" d="M10.8029 24.6038C13.096 24.6038 14.9549 22.7449 14.9549 20.4518C14.9549 18.1587 13.096 16.2998 10.8029 16.2998C8.5098 16.2998 6.65088 18.1587 6.65088 20.4518C6.65088 22.7449 8.5098 24.6038 10.8029 24.6038Z" fill="#fff"></path>
<path class="circle3" d="M18.4525 17.3464C20.9711 17.3464 23.0129 15.3046 23.0129 12.786C23.0129 10.2674 20.9711 8.22559 18.4525 8.22559C15.9339 8.22559 13.8921 10.2674 13.8921 12.786C13.8921 15.3046 15.9339 17.3464 18.4525 17.3464Z" fill="#fff"></path>
<path class="circle4" d="M26.1113 10.3687C28.9746 10.3687 31.2957 8.04758 31.2957 5.18435C31.2957 2.32111 28.9746 0 26.1113 0C23.2481 0 20.927 2.32111 20.927 5.18435C20.927 8.04758 23.2481 10.3687 26.1113 10.3687Z" fill="#fff"></path>
<path class="circle7" d="M33.7421 17.3137C36.2607 17.3137 38.3025 15.2719 38.3025 12.7533C38.3025 10.2346 36.2607 8.19287 33.7421 8.19287C31.2234 8.19287 29.1816 10.2346 29.1816 12.7533C29.1816 15.2719 31.2234 17.3137 33.7421 17.3137Z" fill="#fff"></path>
<path class="circle8" d="M41.2863 24.5584C43.5794 24.5584 45.4383 22.6995 45.4383 20.4064C45.4383 18.1133 43.5794 16.2544 41.2863 16.2544C38.9932 16.2544 37.1343 18.1133 37.1343 20.4064C37.1343 22.6995 38.9932 24.5584 41.2863 24.5584Z" fill="#fff"></path>
</svg>